<svg width="400" height="400" viewBox="0 0 400 400" fill="none" xmlns="http://www.w3.org/2000/svg">
<path fill-rule="evenodd" clip-rule="evenodd" d="M130 15V242.655L90 215V144V15H130Z" fill="white"/>
<path d="M310 215V144V15H190V310H241V266L310 215Z" fill="white"/>
<path d="M310 144L385 110.5V15H310M310 144V215L241 266V310M310 144V15M241 310H327M241 310H190V15H310M75 310H147M90 144V215L130 242.655V15H90M90 144L15 110.5V15H90M90 144V15M310 386.5H190V371.375H310V386.5ZM90 386.5H130V371.375H90V386.5Z" stroke="white" stroke-width="33"/>
</svg>
